<?xml version="1.0" encoding="utf-8"?>
<!-- Generator: Adobe Illustrator 16.0.0, SVG Export Plug-In . SVG Version: 6.00 Build 0)  -->
<!DOCTYPE svg PUBLIC "-//W3C//DTD SVG 1.1//EN" "http://www.w3.org/Graphics/SVG/1.1/DTD/svg11.dtd">
<svg version="1.1" id="Layer_1" xmlns="http://www.w3.org/2000/svg" xmlns:xlink="http://www.w3.org/1999/xlink" x="0px" y="0px"
	 width="215px" height="195px" viewBox="0 0 215 195" enable-background="new 0 0 215 195" xml:space="preserve">
<path fill="#F26D7C" d="M174.591,88.847c-10.149-32.988-1.839-41.101-0.036-42.339h-67.365H38.708
	c1.803,1.238,10.365,9.351,0.215,42.339c-14.918,48.48,55.285,74.916,67.834,79.934c0.137-0.055,0.283-0.111,0.433-0.172
	C120.826,163.183,189.346,136.801,174.591,88.847"/>
<g opacity="0.5">
	<g>
		<g>
			<defs>
				<rect id="SVGID_1_" x="106.08" y="44.924" width="69.47" height="122.1"/>
			</defs>
			<clipPath id="SVGID_2_">
				<use xlink:href="#SVGID_1_"  overflow="visible"/>
			</clipPath>
			<path clip-path="url(#SVGID_2_)" fill="#DF2F55" d="M173.478,87.263c-10.149-32.988-1.839-41.101-0.035-42.339h-67.366v122.102
				C119.713,161.599,188.232,135.217,173.478,87.263"/>
		</g>
	</g>
</g>
<path fill="#F26D7C" d="M129.465,130.408H83.203c-4.695,0-8.502-3.807-8.502-8.502V83.809c0-4.696,3.807-8.503,8.502-8.503h46.262
	c4.695,0,8.503,3.807,8.503,8.503v38.097C137.968,126.602,134.16,130.408,129.465,130.408"/>
<path fill="#191818" d="M129.465,132.416h-46.26c-5.796,0-10.511-4.716-10.511-10.511V83.809c0-5.795,4.715-10.51,10.511-10.51
	h46.26c5.795,0,10.51,4.715,10.51,10.51v38.097C139.975,127.7,135.26,132.416,129.465,132.416 M83.205,77.313
	c-3.582,0-6.496,2.914-6.496,6.496v38.097c0,3.582,2.914,6.496,6.496,6.496h46.26c3.582,0,6.496-2.914,6.496-6.496V83.809
	c0-3.582-2.914-6.496-6.496-6.496H83.205z"/>
<path fill="#F26D7C" d="M137.968,76.283c0-4.696-3.808-8.503-8.503-8.503H83.203c-4.695,0-8.502,3.807-8.502,8.503v7.125h63.267
	V76.283z"/>
<path fill="#FFFFFF" d="M74.701,83.91v30.471c0,4.697,3.807,8.503,8.502,8.503h46.262c4.695,0,8.502-3.806,8.502-8.503V83.91H74.701
	z"/>
<path fill="#191818" d="M129.465,124.89h-46.26c-5.796,0-10.511-4.716-10.511-10.511V76.283c0-5.795,4.715-10.51,10.511-10.51h46.26
	c5.795,0,10.51,4.715,10.51,10.51v38.096C139.975,120.174,135.26,124.89,129.465,124.89 M83.205,69.788
	c-3.582,0-6.496,2.914-6.496,6.496v38.097c0,3.582,2.914,6.496,6.496,6.496h46.26c3.582,0,6.496-2.914,6.496-6.496V76.284
	c0-3.582-2.914-6.496-6.496-6.496H83.205L83.205,69.788z"/>
<path fill="#FFFFFF" d="M122.576,55.408c-2.75,0-4.979,2.229-4.979,4.978v10.429c0,2.749,2.229,4.977,4.979,4.977
	c2.748,0,4.977-2.228,4.977-4.977v-10.43C127.553,57.636,125.324,55.408,122.576,55.408"/>
<path fill="#191818" d="M122.576,77.546c-3.713,0-6.732-3.02-6.732-6.733V60.385c0-3.713,3.021-6.733,6.732-6.733
	c3.711,0,6.73,3.02,6.73,6.733v10.429C129.308,74.526,126.287,77.546,122.576,77.546 M122.576,57.164
	c-1.775,0-3.223,1.445-3.223,3.222v10.429c0,1.776,1.446,3.221,3.223,3.221c1.773,0,3.221-1.445,3.221-3.221v-10.43
	C125.797,58.608,124.351,57.164,122.576,57.164"/>
<path fill="#FFFFFF" d="M90.211,55.408c-2.75,0-4.978,2.229-4.978,4.978v10.429c0,2.749,2.228,4.977,4.978,4.977
	c2.748,0,4.977-2.228,4.977-4.977v-10.43C95.188,57.636,92.959,55.408,90.211,55.408"/>
<path fill="#191818" d="M90.211,77.546c-3.713,0-6.732-3.02-6.732-6.733V60.385c0-3.713,3.02-6.733,6.732-6.733
	c3.711,0,6.731,3.02,6.731,6.733v10.429C96.942,74.526,93.922,77.546,90.211,77.546 M90.211,57.164
	c-1.775,0-3.222,1.445-3.222,3.222v10.429c0,1.776,1.446,3.221,3.222,3.221c1.774,0,3.221-1.445,3.221-3.221v-10.43
	C93.432,58.608,91.985,57.164,90.211,57.164"/>
<rect x="81.604" y="87.945" fill="#F26D7C" width="7.525" height="7.525"/>
<rect x="91.889" y="87.945" fill="#F26D7C" width="7.525" height="7.525"/>
<rect x="102.174" y="87.945" fill="#F26D7C" width="7.525" height="7.525"/>
<rect x="112.458" y="87.945" fill="#F26D7C" width="7.524" height="7.525"/>
<rect x="122.743" y="87.945" fill="#F26D7C" width="7.523" height="7.525"/>
<rect x="81.604" y="98.229" fill="#F26D7C" width="7.525" height="7.524"/>
<rect x="91.889" y="98.229" fill="#F26D7C" width="7.525" height="7.524"/>
<rect x="102.174" y="98.229" fill="#F26D7C" width="7.525" height="7.524"/>
<rect x="112.458" y="98.229" fill="#F26D7C" width="7.524" height="7.524"/>
<rect x="122.743" y="98.229" fill="#F26D7C" width="7.523" height="7.524"/>
<rect x="81.604" y="108.515" fill="#F26D7C" width="7.525" height="7.524"/>
<rect x="91.889" y="108.515" fill="#F26D7C" width="7.525" height="7.524"/>
<rect x="102.174" y="108.515" fill="#F26D7C" width="7.525" height="7.524"/>
<rect x="112.458" y="108.515" fill="#F26D7C" width="7.524" height="7.524"/>
<rect x="122.743" y="108.515" fill="#F26D7C" width="7.523" height="7.524"/>
<g opacity="0.4">
	<g>
		<g>
			<defs>
				<rect id="SVGID_3_" x="36.85" y="0.725" width="139.811" height="168.06"/>
			</defs>
			<clipPath id="SVGID_4_">
				<use xlink:href="#SVGID_3_"  overflow="visible"/>
			</clipPath>
			<path clip-path="url(#SVGID_4_)" fill="#FFFFFF" d="M106.757,14.791c8.377,4.036,25.286,10.075,54.196,12.173v14.625
				c-1.492,2.458-2.889,5.657-3.813,9.769c-2.388,10.613-0.952,24.591,4.266,41.547c2.328,7.568,1.854,14.6-1.445,21.498
				c-3.051,6.374-8.518,12.726-16.25,18.875c-12.737,10.132-28.211,17.049-36.952,20.637c-8.742-3.588-24.216-10.505-36.952-20.637
				c-7.734-6.149-13.201-12.501-16.251-18.875c-3.302-6.898-3.774-13.93-1.445-21.498c5.231-17.001,6.613-31.022,4.109-41.675
				c-0.964-4.098-2.392-7.283-3.909-9.729V26.958C74.447,25.319,93.885,20.995,106.757,14.791 M106.757,0.729
				c-1.728,0-3.453,0.347-4.796,1.037C92.02,6.886,72.69,12.354,43.978,13.629c-3.017,0.134-5.465,2.57-5.465,5.589v27.161
				c0,0,11.263,7.193,0.409,42.466c-14.918,48.481,55.285,74.915,67.835,79.934c12.549-5.019,82.751-31.451,67.834-79.934
				c-10.854-35.272,0.159-42.466,0.159-42.466V19.219c0-3.019-2.449-5.455-5.465-5.589c-28.713-1.276-47.791-6.744-57.734-11.864
				C110.209,1.076,108.482,0.729,106.757,0.729"/>
		</g>
	</g>
</g>
<path fill="#191818" d="M106.757,9.095c0.526,0,0.894,0.091,1.007,0.13c13.142,6.754,34.396,11.326,58.62,12.638v21.353
	c-1.47,2.076-2.99,5.087-3.946,9.333c-2.177,9.679-0.778,22.718,4.157,38.758c5.106,16.6-1.271,31.718-19.507,46.221
	c-14.387,11.444-31.92,18.869-40.331,22.248c-8.413-3.379-25.946-10.804-40.333-22.248c-18.232-14.502-24.613-29.621-19.506-46.221
	c4.943-16.066,6.295-29.133,4.014-38.836c-0.997-4.241-2.555-7.243-4.053-9.313V21.862c24.393-1.318,45.742-5.89,58.871-12.638
	C105.863,9.186,106.229,9.095,106.757,9.095 M106.757,0.729c-1.728,0-3.453,0.346-4.796,1.037
	C92.02,6.886,72.69,12.354,43.978,13.629c-3.017,0.134-5.465,2.57-5.465,5.589v27.161c0,0,11.263,7.193,0.409,42.466
	c-14.918,48.481,55.285,74.915,67.835,79.934c12.549-5.019,82.751-31.451,67.834-79.934c-10.854-35.272,0.159-42.466,0.159-42.466
	V19.219c0-3.019-2.449-5.455-5.465-5.589c-28.713-1.276-47.791-6.744-57.734-11.864C110.209,1.075,108.482,0.729,106.757,0.729"/>
<path fill="#191818" d="M174.75,19.22c0-3.02-2.449-5.456-5.466-5.59c-28.712-1.275-47.791-6.743-57.733-11.864
	c-2.684-1.382-6.905-1.382-9.59,0C92.02,6.887,72.69,12.354,43.979,13.629c-3.018,0.134-5.467,2.57-5.467,5.59v27.16
	c0,0,0.07,0.042,0.195,0.128h135.848c0.125-0.086,0.195-0.128,0.195-0.128V19.22L174.75,19.22z"/>
<polygon fill="#FFFFFF" points="85.982,37.674 85.982,22.804 82.941,25.963 80.623,23.526 86.523,17.596 90.046,17.596 
	90.046,37.674 "/>
<path fill="#FFFFFF" d="M93.266,35.688c0-1.264,1.083-2.348,2.348-2.348c1.265,0,2.318,1.084,2.318,2.348
	c0,1.266-1.054,2.318-2.318,2.318C94.35,38.005,93.266,36.954,93.266,35.688"/>
<path fill="#FFFFFF" d="M100.551,34.875l2.438-2.589c1.054,1.385,2.469,2.168,4.185,2.168c1.928,0,3.041-1.475,3.041-3.162
	c0-1.986-1.054-3.161-2.859-3.161c-1.354,0-2.377,0.482-3.313,1.656l-2.92-0.783V17.595h12.042v3.551h-8.008v5.149
	c0.783-0.963,2.137-1.656,3.673-1.656c3.04,0,5.479,2.379,5.479,6.533c0,4.034-2.739,6.864-7.016,6.864
	C104.193,38.037,102.055,36.893,100.551,34.875"/>
<polygon fill="#FFFFFF" points="127.131,37.674 122.494,29.818 121.079,32.044 121.079,37.674 117.045,37.674 117.045,17.596 
	121.079,17.596 121.079,26.718 126.739,17.596 131.436,17.596 125.023,27.047 131.889,37.674 "/>
<polygon fill="#FFFFFF" points="77.702,25.893 70.244,24.762 66.923,17.665 63.604,24.762 56.145,25.893 61.533,31.427 
	60.186,39.222 66.923,35.541 73.66,39.222 72.313,31.427 "/>
<polygon fill="#FFFFFF" points="157.369,25.893 149.91,24.762 146.59,17.665 143.27,24.762 135.811,25.893 141.2,31.427 
	139.853,39.222 146.59,35.541 153.326,39.222 151.979,31.427 "/>
<polygon fill="#FFFFFF" points="159.07,177.893 106.777,192.076 54.484,176.388 54.484,148.867 106.777,164.555 159.07,148.867 "/>
<path fill="#020202" d="M106.777,193l-54.552-13.336V145.99l54.552,13.334l54.551-13.334v33.674L106.777,193z M56.742,176.12
	l50.035,12.231l50.036-12.231v-24.377l-50.036,12.23l-50.035-12.23V176.12z"/>
<polygon fill="#020202" points="135.558,155.055 161.395,146.076 148.321,136.295 127.308,154.307 "/>
<polygon fill="#020202" points="77.955,155.055 52.118,146.076 65.191,136.295 86.205,154.307 "/>
<polygon fill="#020202" points="78.627,165.48 76.037,159.943 73.447,165.48 67.629,166.363 71.833,170.68 70.782,176.761 
	76.037,173.889 81.292,176.761 80.241,170.68 84.445,166.363 "/>
<polygon fill="#020202" points="109.314,171.558 106.455,165.447 103.597,171.558 97.176,172.531 101.814,177.296 100.654,184.007 
	106.455,180.838 112.255,184.007 111.095,177.296 115.734,172.531 "/>
<polygon fill="#F26D7C" points="139.652,165.48 137.063,159.943 134.472,165.48 128.652,166.363 132.857,170.68 131.807,176.761 
	137.063,173.889 142.316,176.761 141.266,170.68 145.47,166.363 "/>
<path fill="#020202" d="M199.627,108.145c-1.816-3.577-5.512-6.852-6.379-10.245l-0.532-0.223c-1.337,3.336-1.191,7.327-0.168,10.95
	c1.108,4.705,3.424,8.369,4.508,12.994c0.192,0.891,0.354,1.775,0.458,2.742c6.956-5.049,13.369-10.808,15.183-19.896l-12.193,6.129
	C200.339,109.748,200.01,108.91,199.627,108.145"/>
<path fill="#020202" d="M196.492,66.361c0.577,1.658,0.758,3.546,1.547,5.248c0.51,0.668,0.961,1.357,1.432,2.056
	c1.314,1.815,2.677,3.431,4.42,3.885c0.605-2.796,1.064-5.733,0.533-8.912c-0.604-2.012-1.506-3.807-2.688-5.429
	c-1.849-2.559-4.357-4.637-7.396-6.199c-0.099-0.057-0.166-0.071-0.223-0.119l-0.404,0.093c0.158,0.24,0.304,0.516,0.461,0.796
	C195.549,60.405,195.961,63.183,196.492,66.361"/>
<path fill="#020202" d="M201.125,83.527c-2.652-3.01-7.049-5.257-8.736-8.326l-0.569-0.084c-0.461,3.564,0.675,7.393,2.571,10.646
	c2.248,4.278,5.406,7.249,7.611,11.456c0.41,0.813,0.785,1.631,1.129,2.54c5.476-6.626,10.246-13.805,9.729-23.058l-10.276,8.98
	C202.215,84.902,201.688,84.172,201.125,83.527"/>
<path fill="#020202" d="M13.887,108.145c1.815-3.577,5.512-6.852,6.379-10.245l0.531-0.223c1.337,3.336,1.193,7.327,0.168,10.95
	c-1.107,4.705-3.424,8.369-4.508,12.994c-0.193,0.891-0.354,1.775-0.458,2.742c-6.956-5.049-13.369-10.808-15.183-19.896
	l12.195,6.129C13.174,109.748,13.503,108.91,13.887,108.145"/>
<path fill="#020202" d="M17.021,66.361c-0.578,1.658-0.758,3.546-1.547,5.248c-0.512,0.668-0.961,1.357-1.432,2.056
	c-1.314,1.815-2.677,3.431-4.421,3.885c-0.604-2.796-1.065-5.733-0.534-8.912c0.606-2.012,1.508-3.807,2.69-5.429
	c1.849-2.559,4.358-4.637,7.396-6.199c0.1-0.057,0.168-0.071,0.224-0.119l0.403,0.093c-0.156,0.24-0.303,0.516-0.459,0.796
	C17.965,60.405,17.553,63.183,17.021,66.361"/>
<path fill="#020202" d="M12.388,83.527c2.653-3.01,7.049-5.257,8.735-8.326l0.571-0.084c0.461,3.564-0.675,7.393-2.573,10.646
	c-2.248,4.278-5.406,7.249-7.611,11.456c-0.409,0.813-0.784,1.631-1.127,2.54c-5.475-6.626-10.246-13.805-9.73-23.058l10.275,8.98
	C11.297,84.902,11.826,84.172,12.388,83.527"/>
<path fill="#020202" d="M180.024,149.302c-0.916-0.018-1.783-0.026-2.639,0.015c3.211-4.571,2.291-10.163,4.059-15.119l-0.018-0.219
	c-5.33,2.008-8.125,6.701-10.73,11.656c-1.861,3.592-3.684,7.273-6.339,9.994c1.108,0.08,2.151,0.229,3.233,0.389
	c1.121,0.164,2.274,0.386,3.436,0.691c2.306,0.135,4.581,0.237,6.73,0.167c4.036-0.171,7.795-0.854,11.037-2.606
	c1.502-0.797,2.902-1.849,4.131-3.16c-0.949-0.153-1.992-0.342-3.026-0.523C186.633,150.03,183.2,149.46,180.024,149.302"/>
<path fill="#020202" d="M193.024,133.729c-1.494-5.036-4.274-10.122-3.864-15.641l-0.144-0.219l-0.375,0.164
	c-0.043,0.036-0.096,0.108-0.101,0.145c-0.292,0.5-0.602,0.785-1.136,1.3c-3.806,6.707-3.23,14.78-1.275,21.92
	c0.32,1.177,0.653,2.295,1.063,3.425c3.423-2.676,7.645-3.357,11.442-5.306c0.34-0.207,0.676-0.37,1.028-0.582
	c3.66-2.641,5.886-7.007,6.841-11.183c-2.373,0.757-4.699,1.366-6.875,2.186C197.285,130.783,195.023,131.926,193.024,133.729"/>
<path fill="#020202" d="M33.552,149.302c0.915-0.018,1.782-0.026,2.638,0.015c-3.212-4.571-2.291-10.163-4.059-15.119l0.018-0.219
	c5.329,2.008,8.124,6.701,10.73,11.656c1.861,3.592,3.684,7.273,6.34,9.994c-1.109,0.08-2.153,0.229-3.234,0.389
	c-1.122,0.164-2.275,0.386-3.436,0.691c-2.305,0.135-4.58,0.237-6.731,0.167c-4.036-0.171-7.795-0.854-11.037-2.606
	c-1.502-0.797-2.901-1.849-4.131-3.16c0.949-0.153,1.992-0.342,3.028-0.523C26.942,150.03,30.375,149.46,33.552,149.302"/>
<path fill="#020202" d="M20.552,133.729c1.493-5.036,4.274-10.122,3.864-15.641l0.143-0.219l0.374,0.164
	c0.044,0.036,0.097,0.108,0.101,0.145c0.293,0.5,0.602,0.785,1.137,1.3c3.805,6.707,3.229,14.78,1.275,21.92
	c-0.32,1.177-0.654,2.295-1.063,3.425c-3.424-2.676-7.645-3.357-11.443-5.306c-0.341-0.207-0.677-0.37-1.029-0.582
	c-3.66-2.641-5.886-7.007-6.841-11.183c2.373,0.757,4.7,1.366,6.876,2.186C16.291,130.783,18.553,131.926,20.552,133.729"/>
</svg>
