<?xml version="1.0" encoding="utf-8"?>
<!-- Generator: Adobe Illustrator 17.1.0, SVG Export Plug-In . SVG Version: 6.00 Build 0)  -->
<!DOCTYPE svg PUBLIC "-//W3C//DTD SVG 1.1//EN" "http://www.w3.org/Graphics/SVG/1.1/DTD/svg11.dtd">
<svg version="1.1" id="Layer_1" xmlns="http://www.w3.org/2000/svg" xmlns:xlink="http://www.w3.org/1999/xlink" x="0px" y="0px"
	 viewBox="0.1 74.1 283.5 319.7" enable-background="new 0.1 74.1 283.5 319.7" xml:space="preserve">
<g>
	<g>
		<g>
			<path fill="#59C5C9" d="M269.6,147.4L152.9,80.1c-2.7-1.6-6.2-2.4-9.8-2.5c-0.4,0-0.5,0-0.9,0c-4.2,0-8.2,0.9-11.3,2.5
				L14.3,147.4c-6,3.5-11.1,12.2-11.1,19.1v134.6c0,7.1,4.9,15.6,11.1,19.1l116.6,67.3c3.1,1.8,7.3,2.7,11.3,2.5c0.4,0,0.5,0,0.9,0
				c3.6-0.2,7.1-1.1,9.8-2.5l116.6-67.3c6-3.5,11.1-12.2,11.1-19.1V166.6C280.6,159.6,275.7,150.9,269.6,147.4z"/>
		</g>
	</g>
	<g opacity="0.6">
		<g>
			<path fill="#3D868D" d="M272.3,322.3c6.2-3.6,11.3-12.4,11.3-19.5V165.3c0-7.1-5.1-16-11.3-19.5L153.1,77
				c-2.7-1.6-8.4,3.5-12,3.3V388c3.6-0.2,9.3,4.9,12,3.3L272.3,322.3z"/>
		</g>
	</g>
	<g opacity="0.4">
		<g>
			<g>
				<path fill="#FFFFFF" d="M141.8,102.1L255.9,168v131.7l-114.1,66L27.8,299.9V168.2L141.8,102.1 M141.8,74.1
					c-4,0-8.2,0.9-11.3,2.7L11.4,145.6C5.2,149.3,0.1,158,0.1,165.1v137.5c0,7.1,5.1,16,11.3,19.5l119.2,68.8
					c3.1,1.8,7.3,2.7,11.3,2.7c0.2,0,0.2,0,0.4,0c4,0,8-0.9,10.9-2.7l119.2-68.8c6.2-3.6,11.3-12.4,11.3-19.5V165.1
					c0-7.1-5.1-16-11.3-19.5L153.1,76.9c-3.1-1.8-6.9-2.5-10.9-2.7C142.2,74.1,142,74.1,141.8,74.1L141.8,74.1z"/>
			</g>
		</g>
	</g>
	<g>
		<g>
			<g>
				<path fill="#1A1A19" d="M141.8,89.2L141.8,89.2c2.2,0,3.5,0.5,3.8,0.7l119.2,68.8c1.5,0.9,3.8,4.7,3.8,6.5v137.5
					c0,1.8-2.2,5.6-3.8,6.5l-119.2,68.8c-0.4,0.2-1.6,0.7-3.6,0.7h-0.2c-2.2,0-3.5-0.5-3.8-0.7L18.8,309.4c-1.5-0.9-3.8-4.7-3.8-6.5
					V165.3c0-1.8,2.2-5.6,3.8-6.5L138,90C138.4,89.6,139.8,89.2,141.8,89.2 M141.8,74.1c-4,0-8.2,0.9-11.3,2.7L11.4,145.6
					C5.2,149.3,0.1,158,0.1,165.1v137.5c0,7.1,5.1,16,11.3,19.5l119.2,68.8c3.1,1.8,7.3,2.7,11.3,2.7c0.2,0,0.2,0,0.4,0
					c4,0,8-0.9,10.9-2.7l119.2-68.8c6.2-3.6,11.3-12.4,11.3-19.5V165.1c0-7.1-5.1-16-11.3-19.5L153.1,76.9
					c-3.1-1.8-6.9-2.5-10.9-2.7C142.2,74.1,142,74.1,141.8,74.1L141.8,74.1z"/>
			</g>
		</g>
	</g>
	<g>
		<g>
			<path fill="none" d="M11.4,322.3l119.2,68.8c3.3,1.8,7.5,2.7,11.6,2.7c4,0,8-0.9,10.9-2.7l119.2-68.8
				c6.2-3.6,11.3-12.4,11.3-19.5V165.3c0-7.1-5.1-16-11.3-19.5L153.1,77c-3.1-1.8-6.9-2.5-10.9-2.7c-4.2,0-8.4,0.9-11.6,2.7
				L11.4,145.8c-6.2,3.6-11.3,12.4-11.3,19.5v137.5C0.1,309.9,5.2,318.7,11.4,322.3z"/>
		</g>
	</g>
	<g>
		<g>
			<g>
				<path fill="#1A1A19" d="M141.8,89.2L141.8,89.2c2.2,0,3.5,0.5,3.8,0.7l119.2,68.8c1.5,0.9,3.8,4.7,3.8,6.5v137.5
					c0,1.8-2.2,5.6-3.8,6.5l-119.2,68.8c-0.4,0.2-1.6,0.7-3.6,0.7h-0.2c-2.2,0-3.5-0.5-3.8-0.7L18.8,309.4c-1.5-0.9-3.8-4.7-3.8-6.5
					V165.3c0-1.8,2.2-5.6,3.8-6.5L138,90C138.4,89.6,139.8,89.2,141.8,89.2 M141.8,74.1c-4,0-8.2,0.9-11.3,2.7L11.4,145.6
					C5.2,149.3,0.1,158,0.1,165.1v137.5c0,7.1,5.1,16,11.3,19.5l119.2,68.8c3.1,1.8,7.3,2.7,11.3,2.7c0.2,0,0.2,0,0.4,0
					c4,0,8-0.9,10.9-2.7l119.2-68.8c6.2-3.6,11.3-12.4,11.3-19.5V165.1c0-7.1-5.1-16-11.3-19.5L153.1,76.9
					c-3.1-1.8-6.9-2.5-10.9-2.7C142.2,74.1,142,74.1,141.8,74.1L141.8,74.1z"/>
			</g>
		</g>
	</g>
	<g>
		<g>
			<g>
				<path fill="#1A1A19" d="M141.8,89.2L141.8,89.2c2.2,0,3.5,0.5,3.8,0.7l119.2,68.8c1.5,0.9,3.8,4.7,3.8,6.5v137.5
					c0,1.8-2.2,5.6-3.8,6.5l-119.2,68.8c-0.4,0.2-1.6,0.7-3.6,0.7h-0.2c-2.2,0-3.5-0.5-3.8-0.7L18.8,309.4c-1.5-0.9-3.8-4.7-3.8-6.5
					V165.3c0-1.8,2.2-5.6,3.8-6.5L138,90C138.4,89.6,139.8,89.2,141.8,89.2 M141.8,74.1c-4,0-8.2,0.9-11.3,2.7L11.4,145.6
					C5.2,149.3,0.1,158,0.1,165.1v137.5c0,7.1,5.1,16,11.3,19.5l119.2,68.8c3.1,1.8,7.3,2.7,11.3,2.7c0.2,0,0.2,0,0.4,0
					c4,0,8-0.9,10.9-2.7l119.2-68.8c6.2-3.6,11.3-12.4,11.3-19.5V165.1c0-7.1-5.1-16-11.3-19.5L153.1,76.9
					c-3.1-1.8-6.9-2.5-10.9-2.7C142.2,74.1,142,74.1,141.8,74.1L141.8,74.1z"/>
			</g>
		</g>
	</g>
</g>
<g>
	<path fill="#FFFFFF" d="M86.7,228.4c-20.7,0-37.5,16.9-37.5,37.8c0,20.9,16.7,37.8,37.5,37.8s37.5-16.9,37.5-37.8
		C124.2,245.1,107.4,228.4,86.7,228.4z M86.7,297c-16.7,0-30.6-13.8-30.6-30.9c0-16.9,13.6-30.7,30.6-30.7s30.6,13.8,30.6,30.7
		C117.3,283.2,103.6,297,86.7,297z"/>
	<path fill="#FFFFFF" d="M197.1,228.6c-20.7,0-37.5,16.9-37.5,37.8c0,20.9,16.7,37.8,37.5,37.8c20.7,0,37.5-16.9,37.5-37.8
		C234.4,245.5,217.7,228.6,197.1,228.6z M197.1,297.4c-16.9,0-30.6-13.8-30.6-30.9c0-17.1,13.6-30.7,30.6-30.7
		c16.7,0,30.6,13.8,30.6,30.7C227.5,283.5,213.9,297.4,197.1,297.4z"/>
	<path fill="#FFFFFF" d="M159.7,174.2c7.8,0,14.2-6.4,14.2-14.2c0-7.8-6.4-14.2-14.2-14.2s-14.2,6.4-14.2,14.2
		C145.7,167.8,151.8,174.2,159.7,174.2z"/>
	<path fill="#FFFFFF" d="M160.2,208.8h27.3c8.4,0,8.4-11.1,0-11.1H164l-15.5-24.6c0,0-3.3-5.5-9.5-5.5c0,0-5.1-0.7-8.9,3.6l-29.8,30
		c-2,2.2-3.1,4.9-3.1,8c0,4.4,2.4,8.4,6,10.4l30.4,17.1v32c0,4.5,3.6,8.2,8.2,8.2c4.5,0,8.2-3.6,8.2-8.2v-40c0,0,1.1-6.4-6.2-9.8
		l-17.5-9.3l18.9-18.9l9.1,14.4C156,207.7,158.2,208.8,160.2,208.8L160.2,208.8L160.2,208.8z"/>
</g>
</svg>
