<?xml version="1.0" encoding="utf-8"?>
<!-- Generator: Adobe Illustrator 17.1.0, SVG Export Plug-In . SVG Version: 6.00 Build 0)  -->
<!DOCTYPE svg PUBLIC "-//W3C//DTD SVG 1.1//EN" "http://www.w3.org/Graphics/SVG/1.1/DTD/svg11.dtd">
<svg version="1.1" id="Layer_1" xmlns="http://www.w3.org/2000/svg" xmlns:xlink="http://www.w3.org/1999/xlink" x="0px" y="0px"
	 viewBox="0 82.1 283.5 319.7" enable-background="new 0 82.1 283.5 319.7" xml:space="preserve">
<g>
	<g>
		<g>
			<path fill="#59C5C9" d="M269.5,155.4L152.8,88.1c-2.7-1.6-6.2-2.4-9.8-2.5c-0.4,0-0.5,0-0.9,0c-4.2,0-8.2,0.9-11.3,2.5
				L14.2,155.4c-6,3.5-11.1,12.2-11.1,19.1v134.6c0,7.1,4.9,15.6,11.1,19.1l116.6,67.3c3.1,1.8,7.3,2.7,11.3,2.5c0.4,0,0.5,0,0.9,0
				c3.6-0.2,7.1-1.1,9.8-2.5l116.6-67.3c6-3.5,11.1-12.2,11.1-19.1V174.6C280.5,167.6,275.6,158.9,269.5,155.4z"/>
		</g>
	</g>
	<g opacity="0.6">
		<g>
			<path fill="#3D868D" d="M272.2,330.3c6.2-3.6,11.3-12.4,11.3-19.5V173.3c0-7.1-5.1-16-11.3-19.5L153,85c-2.7-1.6-8.4,3.5-12,3.3
				V396c3.6-0.2,9.3,4.9,12,3.3L272.2,330.3z"/>
		</g>
	</g>
	<g opacity="0.4">
		<g>
			<g>
				<path fill="#FFFFFF" d="M141.7,110.1L255.8,176v131.7l-114.1,66L27.7,307.9V176.2L141.7,110.1 M141.7,82.1
					c-4,0-8.2,0.9-11.3,2.7L11.3,153.6C5.1,157.3,0,166,0,173.1v137.5c0,7.1,5.1,16,11.3,19.5l119.2,68.8c3.1,1.8,7.3,2.7,11.3,2.7
					c0.2,0,0.2,0,0.4,0c4,0,8-0.9,10.9-2.7l119.2-68.8c6.2-3.6,11.3-12.4,11.3-19.5V173.1c0-7.1-5.1-16-11.3-19.5L153,84.9
					c-3.1-1.8-6.9-2.5-10.9-2.7C142.1,82.1,141.9,82.1,141.7,82.1L141.7,82.1z"/>
			</g>
		</g>
	</g>
	<g>
		<g>
			<g>
				<path fill="#1A1A19" d="M141.7,97.2L141.7,97.2c2.2,0,3.5,0.5,3.8,0.7l119.2,68.8c1.5,0.9,3.8,4.7,3.8,6.5v137.5
					c0,1.8-2.2,5.6-3.8,6.5l-119.2,68.8c-0.4,0.2-1.6,0.7-3.6,0.7h-0.2c-2.2,0-3.5-0.5-3.8-0.7L18.7,317.4c-1.5-0.9-3.8-4.7-3.8-6.5
					V173.3c0-1.8,2.2-5.6,3.8-6.5L137.9,98C138.3,97.6,139.7,97.2,141.7,97.2 M141.7,82.1c-4,0-8.2,0.9-11.3,2.7L11.3,153.6
					C5.1,157.3,0,166,0,173.1v137.5c0,7.1,5.1,16,11.3,19.5l119.2,68.8c3.1,1.8,7.3,2.7,11.3,2.7c0.2,0,0.2,0,0.4,0
					c4,0,8-0.9,10.9-2.7l119.2-68.8c6.2-3.6,11.3-12.4,11.3-19.5V173.1c0-7.1-5.1-16-11.3-19.5L153,84.9c-3.1-1.8-6.9-2.5-10.9-2.7
					C142.1,82.1,141.9,82.1,141.7,82.1L141.7,82.1z"/>
			</g>
		</g>
	</g>
	<g>
		<g>
			<path fill="none" d="M11.3,330.3l119.2,68.8c3.3,1.8,7.5,2.7,11.6,2.7c4,0,8-0.9,10.9-2.7l119.2-68.8
				c6.2-3.6,11.3-12.4,11.3-19.5V173.3c0-7.1-5.1-16-11.3-19.5L153,85c-3.1-1.8-6.9-2.5-10.9-2.7c-4.2,0-8.4,0.9-11.6,2.7
				L11.3,153.8C5.1,157.4,0,166.2,0,173.3v137.5C0,317.9,5.1,326.7,11.3,330.3z"/>
		</g>
	</g>
	<g>
		<g>
			<g>
				<path fill="#1A1A19" d="M141.7,97.2L141.7,97.2c2.2,0,3.5,0.5,3.8,0.7l119.2,68.8c1.5,0.9,3.8,4.7,3.8,6.5v137.5
					c0,1.8-2.2,5.6-3.8,6.5l-119.2,68.8c-0.4,0.2-1.6,0.7-3.6,0.7h-0.2c-2.2,0-3.5-0.5-3.8-0.7L18.7,317.4c-1.5-0.9-3.8-4.7-3.8-6.5
					V173.3c0-1.8,2.2-5.6,3.8-6.5L137.9,98C138.3,97.6,139.7,97.2,141.7,97.2 M141.7,82.1c-4,0-8.2,0.9-11.3,2.7L11.3,153.6
					C5.1,157.3,0,166,0,173.1v137.5c0,7.1,5.1,16,11.3,19.5l119.2,68.8c3.1,1.8,7.3,2.7,11.3,2.7c0.2,0,0.2,0,0.4,0
					c4,0,8-0.9,10.9-2.7l119.2-68.8c6.2-3.6,11.3-12.4,11.3-19.5V173.1c0-7.1-5.1-16-11.3-19.5L153,84.9c-3.1-1.8-6.9-2.5-10.9-2.7
					C142.1,82.1,141.9,82.1,141.7,82.1L141.7,82.1z"/>
			</g>
		</g>
	</g>
	<g>
		<g>
			<g>
				<path fill="#1A1A19" d="M141.7,97.2L141.7,97.2c2.2,0,3.5,0.5,3.8,0.7l119.2,68.8c1.5,0.9,3.8,4.7,3.8,6.5v137.5
					c0,1.8-2.2,5.6-3.8,6.5l-119.2,68.8c-0.4,0.2-1.6,0.7-3.6,0.7h-0.2c-2.2,0-3.5-0.5-3.8-0.7L18.7,317.4c-1.5-0.9-3.8-4.7-3.8-6.5
					V173.3c0-1.8,2.2-5.6,3.8-6.5L137.9,98C138.3,97.6,139.7,97.2,141.7,97.2 M141.7,82.1c-4,0-8.2,0.9-11.3,2.7L11.3,153.6
					C5.1,157.3,0,166,0,173.1v137.5c0,7.1,5.1,16,11.3,19.5l119.2,68.8c3.1,1.8,7.3,2.7,11.3,2.7c0.2,0,0.2,0,0.4,0
					c4,0,8-0.9,10.9-2.7l119.2-68.8c6.2-3.6,11.3-12.4,11.3-19.5V173.1c0-7.1-5.1-16-11.3-19.5L153,84.9c-3.1-1.8-6.9-2.5-10.9-2.7
					C142.1,82.1,141.9,82.1,141.7,82.1L141.7,82.1z"/>
			</g>
		</g>
	</g>
</g>
<g>
	<path fill="#FFFFFF" d="M230.5,218c-4.7-6.2-10.7-2-16.4,2c-7.6,5.5-14.4,10.2-22.7,16.6c-5.1-9.5-9.6-19.3-13.3-25.8
		c-2.4-4.2-6.4-5.8-10.9-7.8c-4.2-1.8-11.1-4.7-21.1-8c-6-1.8-8.9-1.6-13.3,1.1c-3.1,2-32.2,20.9-35.7,23.5c-8.4,6-4,24.6,11.5,15.1
		l29.1-20.9c4.9,5.5,3.3,9.8-2,13.6c-28.6,20.4-48.8,35.5-77.1,56c-6.7,4.9-12,10.7-6,18.9c6,8.2,11.3,2.5,17.8-2.4
		c17.1-12.7,26.6-19.1,43.3-32.6c8.7-7.1,20.2-2.5,28.7,4.9c-4.9,3.8-9.1,7.1-13.5,10.4c-6.2,4.9-11.6,10-6.5,16.9
		c4.9,6.5,11.5,5.3,17.3,1.1c10.2-7.5,14.2-11.1,23.8-19.1c9.3-7.6,8.2-16.4-2.7-22.2c-5.6-2.9-13.3-8-20.6-11.5
		c7.5-5.8,18.4-13.5,25.3-18.7c2.4,4.9,11.6,19.6,13.5,22.7c5.5,9.3,11.1,9.3,19.6,2.7c10.4-7.8,17.3-12.7,27.3-21.1
		C230.9,229.7,235.6,224.8,230.5,218z"/>
	<path fill="#FFFFFF" d="M181.9,204c11.5,0,20.7-9.5,20.7-21.1c0-11.6-9.3-20.9-20.7-20.9s-20.7,9.5-20.7,20.9
		C161.2,194.6,170.5,204,181.9,204z"/>
</g>
</svg>
