<?xml version="1.0" encoding="utf-8"?>
<!-- Generator: Adobe Illustrator 17.1.0, SVG Export Plug-In . SVG Version: 6.00 Build 0)  -->
<!DOCTYPE svg PUBLIC "-//W3C//DTD SVG 1.1//EN" "http://www.w3.org/Graphics/SVG/1.1/DTD/svg11.dtd">
<svg version="1.1" id="Layer_1" xmlns="http://www.w3.org/2000/svg" xmlns:xlink="http://www.w3.org/1999/xlink" x="0px" y="0px"
	 viewBox="64.1 147.1 155.8 175.7" enable-background="new 64.1 147.1 155.8 175.7" xml:space="preserve">
<g>
	<g>
		<g>
			<path fill="#59C5C9" d="M212.2,187.4l-64.1-37c-1.5-0.9-3.4-1.3-5.4-1.4c-0.2,0-0.3,0-0.5,0c-2.3,0-4.5,0.5-6.2,1.4l-64.1,37
				c-3.3,1.9-6.1,6.7-6.1,10.5v74c0,3.9,2.7,8.6,6.1,10.5l64.1,37c1.7,1,4,1.5,6.2,1.4c0.2,0,0.3,0,0.5,0c2-0.1,3.9-0.6,5.4-1.4
				l64.1-37c3.3-1.9,6.1-6.7,6.1-10.5v-74C218.3,194.1,215.6,189.3,212.2,187.4z"/>
		</g>
	</g>
	<g opacity="0.6">
		<g>
			<path fill="#3D868D" d="M213.7,283.5c3.4-2,6.2-6.8,6.2-10.7v-75.6c0-3.9-2.8-8.8-6.2-10.7l-65.5-37.8c-1.5-0.9-4.6,1.9-6.6,1.8
				v169.1c2-0.1,5.1,2.7,6.6,1.8L213.7,283.5z"/>
		</g>
	</g>
	<g opacity="0.4">
		<g>
			<g>
				<path fill="#FFFFFF" d="M142,162.5l62.7,36.2v72.4L142,307.4l-62.7-36.2v-72.4L142,162.5 M142,147.1c-2.2,0-4.5,0.5-6.2,1.5
					l-65.5,37.8c-3.4,2-6.2,6.8-6.2,10.7v75.6c0,3.9,2.8,8.8,6.2,10.7l65.5,37.8c1.7,1,4,1.5,6.2,1.5c0.1,0,0.1,0,0.2,0
					c2.2,0,4.4-0.5,6-1.5l65.5-37.8c3.4-2,6.2-6.8,6.2-10.7v-75.6c0-3.9-2.8-8.8-6.2-10.7l-65.5-37.8c-1.7-1-3.8-1.4-6-1.5
					C142.2,147.1,142.1,147.1,142,147.1L142,147.1z"/>
			</g>
		</g>
	</g>
	<g>
		<g>
			<g>
				<path fill="#1A1A19" d="M142,155.4L142,155.4c1.2,0,1.9,0.3,2.1,0.4l65.5,37.8c0.8,0.5,2.1,2.6,2.1,3.6v75.6
					c0,1-1.2,3.1-2.1,3.6l-65.5,37.8c-0.2,0.1-0.9,0.4-2,0.4H142c-1.2,0-1.9-0.3-2.1-0.4l-65.5-37.8c-0.8-0.5-2.1-2.6-2.1-3.6v-75.6
					c0-1,1.2-3.1,2.1-3.6l65.5-37.8C140.1,155.6,140.9,155.4,142,155.4 M142,147.1c-2.2,0-4.5,0.5-6.2,1.5l-65.5,37.8
					c-3.4,2-6.2,6.8-6.2,10.7v75.6c0,3.9,2.8,8.8,6.2,10.7l65.5,37.8c1.7,1,4,1.5,6.2,1.5c0.1,0,0.1,0,0.2,0c2.2,0,4.4-0.5,6-1.5
					l65.5-37.8c3.4-2,6.2-6.8,6.2-10.7v-75.6c0-3.9-2.8-8.8-6.2-10.7l-65.5-37.8c-1.7-1-3.8-1.4-6-1.5
					C142.2,147.1,142.1,147.1,142,147.1L142,147.1z"/>
			</g>
		</g>
	</g>
	<g>
		<g>
			<path fill="none" d="M70.3,283.5l65.5,37.8c1.8,1,4.1,1.5,6.4,1.5c2.2,0,4.4-0.5,6-1.5l65.5-37.8c3.4-2,6.2-6.8,6.2-10.7v-75.6
				c0-3.9-2.8-8.8-6.2-10.7l-65.5-37.8c-1.7-1-3.8-1.4-6-1.5c-2.3,0-4.6,0.5-6.4,1.5l-65.5,37.8c-3.4,2-6.2,6.8-6.2,10.7v75.6
				C64.1,276.7,66.9,281.5,70.3,283.5z"/>
		</g>
	</g>
	<g>
		<g>
			<g>
				<path fill="#1A1A19" d="M142,155.4L142,155.4c1.2,0,1.9,0.3,2.1,0.4l65.5,37.8c0.8,0.5,2.1,2.6,2.1,3.6v75.6
					c0,1-1.2,3.1-2.1,3.6l-65.5,37.8c-0.2,0.1-0.9,0.4-2,0.4H142c-1.2,0-1.9-0.3-2.1-0.4l-65.5-37.8c-0.8-0.5-2.1-2.6-2.1-3.6v-75.6
					c0-1,1.2-3.1,2.1-3.6l65.5-37.8C140.1,155.6,140.9,155.4,142,155.4 M142,147.1c-2.2,0-4.5,0.5-6.2,1.5l-65.5,37.8
					c-3.4,2-6.2,6.8-6.2,10.7v75.6c0,3.9,2.8,8.8,6.2,10.7l65.5,37.8c1.7,1,4,1.5,6.2,1.5c0.1,0,0.1,0,0.2,0c2.2,0,4.4-0.5,6-1.5
					l65.5-37.8c3.4-2,6.2-6.8,6.2-10.7v-75.6c0-3.9-2.8-8.8-6.2-10.7l-65.5-37.8c-1.7-1-3.8-1.4-6-1.5
					C142.2,147.1,142.1,147.1,142,147.1L142,147.1z"/>
			</g>
		</g>
	</g>
	<g>
		<g>
			<g>
				<path fill="#1A1A19" d="M142,155.4L142,155.4c1.2,0,1.9,0.3,2.1,0.4l65.5,37.8c0.8,0.5,2.1,2.6,2.1,3.6v75.6
					c0,1-1.2,3.1-2.1,3.6l-65.5,37.8c-0.2,0.1-0.9,0.4-2,0.4H142c-1.2,0-1.9-0.3-2.1-0.4l-65.5-37.8c-0.8-0.5-2.1-2.6-2.1-3.6v-75.6
					c0-1,1.2-3.1,2.1-3.6l65.5-37.8C140.1,155.6,140.9,155.4,142,155.4 M142,147.1c-2.2,0-4.5,0.5-6.2,1.5l-65.5,37.8
					c-3.4,2-6.2,6.8-6.2,10.7v75.6c0,3.9,2.8,8.8,6.2,10.7l65.5,37.8c1.7,1,4,1.5,6.2,1.5c0.1,0,0.1,0,0.2,0c2.2,0,4.4-0.5,6-1.5
					l65.5-37.8c3.4-2,6.2-6.8,6.2-10.7v-75.6c0-3.9-2.8-8.8-6.2-10.7l-65.5-37.8c-1.7-1-3.8-1.4-6-1.5
					C142.2,147.1,142.1,147.1,142,147.1L142,147.1z"/>
			</g>
		</g>
	</g>
</g>
<g>
	<path fill="#FFFFFF" d="M125.6,215.2l0.5,0.2c2.1,0.9,3.2,3.4,2.3,5.5l-5.4,13.1c-0.9,2.1-3.3,3.2-5.5,2.3l-0.5-0.2
		c-2.1-0.9-3.2-3.4-2.3-5.5l5.4-13.1C121,215.3,123.4,214.3,125.6,215.2z"/>
	<path fill="#FFFFFF" d="M151,222l0.3-0.4c1.3-2,3.9-2.5,5.8-1.2l11.8,7.7c1.9,1.3,2.5,3.9,1.2,5.8l-0.3,0.4c-1.3,2-3.9,2.5-5.8,1.2
		l-11.8-7.7C150.3,226.5,149.7,223.9,151,222z"/>
	<path fill="#FFFFFF" d="M119.6,221.6c0,0,0.3-6.7,4.2-10c3.9-3.3,16.1-14.9,26.2-6.8c4.9,4.7,6.1,17.4,14.6,23.2l-2.1,3.7l-11-4.2
		l-3.1-5.3l-2.6,12.1c0,0,14.2,15.5,15.2,22.1l-11.5,2.6l-11-14.2c0,0-4.7,15.3-7.3,18.4l-12.6-2.1l9.1-26.6l3.4-15.6l-5.2,4.2"/>
	<path fill="#FFFFFF" d="M145,183.2c5.1,0,9.2,4.1,9.2,9.2s-4.1,9.2-9.2,9.2s-9.2-4.1-9.2-9.2C135.8,187.3,139.9,183.2,145,183.2z"
		/>
	<path fill="#FFFFFF" d="M130.5,252l0.6,0.4c2.7,1.6,3.6,5.1,2,7.8l-9.7,16.5c-1.6,2.7-5.1,3.6-7.8,2l-0.6-0.4
		c-2.7-1.6-3.6-5.1-2-7.8l9.7-16.5C124.3,251.3,127.8,250.4,130.5,252z"/>
	<path fill="#FFFFFF" d="M153.6,250.1l0.7-0.1c3.1-0.4,5.9,1.8,6.4,4.9l2.5,19.1c0.4,3.1-1.8,6-4.9,6.4l-0.7,0.1
		c-3.1,0.4-5.9-1.8-6.4-4.9l-2.5-19.1C148.3,253.3,150.5,250.5,153.6,250.1z"/>
</g>
</svg>
